Coordinates
version=1
nRows=16
nColumns=36
inDegrees=yes

Units are S.I. units (second, meters, Newtons, ...)
If the header above contains a line with 'inDegrees', this indicates whether rotational values are in degrees (yes) or radians (no).

endheader
time	pelvis_tilt	pelvis_list	pelvis_rotation	pelvis_tx	pelvis_ty	pelvis_tz	hip_flexion_r	hip_adduction_r	hip_rotation_r	knee_angle_r	knee_angle_r_beta	ankle_angle_r	subtalar_angle_r	mtp_angle_r	hip_flexion_l	hip_adduction_l	hip_rotation_l	knee_angle_l	knee_angle_l_beta	ankle_angle_l	subtalar_angle_l	mtp_angle_l	lumbar_extension	lumbar_bending	lumbar_rotation	arm_flex_r	arm_add_r	arm_rot_r	elbow_flex_r	pro_sup_r	arm_flex_l	arm_add_l	arm_rot_l	elbow_flex_l	pro_sup_l
      0.66000000	     -7.85816677	      2.07121661	     -8.26229857	      0.72776697	      0.89595498	     -0.23171365	    -11.04529696	     -0.32480722	      5.42231237	     24.05090617	      0.41976750	      0.67040960	     -3.85006428	     -7.47531155	     31.77616724	      1.30755938	     -4.43123224	     16.74687020	      0.29228802	     -2.44254458	     -0.78152207	     -7.47531155	      8.82701384	     -0.36928309	      7.83131120	      3.75294500	    -15.44094821	      5.72106866	     37.29234169	     82.13011390	    -17.92636597	     -8.06858101	    -11.75647654	     10.55565876	     81.81394592
      0.67000000	     -7.64221460	      2.24602480	     -7.92683704	      0.74248244	      0.89884617	     -0.23167284	    -10.03506635	     -0.59036451	      4.86944731	     27.45853543	      0.47924185	     -1.91247957	     -4.68713902	     -7.47708423	     30.95950800	      1.83508746	     -4.08619628	     17.41218064	      0.30389988	     -2.08991326	     -0.98821284	     -7.47708423	      8.68492987	     -0.71007486	      7.55798367	      2.97971860	    -15.04296183	      5.64177541	     36.40166000	     82.03135990	    -17.15645298	     -8.47844230	    -11.38570204	     11.15483775	     81.70880030
      0.68000000	     -7.47620770	      2.38398265	     -7.59284701	      0.75736613	      0.90231425	     -0.23177873	     -8.76089273	     -0.82065829	      4.35083599	     31.09419927	      0.54269616	     -4.56687183	     -5.40363814	     -7.47879269	     30.12181214	      2.31271196	     -3.75723076	     18.00432884	      0.31423482	     -1.53302675	     -1.12457113	     -7.47879269	      8.62228475	     -0.97574166	      7.24754649	      2.23220704	    -14.65263490	      5.51763354	     35.35191566	     82.03042606	    -16.35640395	     -8.88382619	    -10.93184945	     11.62824240	     81.73347838
      0.69000000	     -7.30570559	      2.52067432	     -7.26050029	      0.77228832	      0.90615524	     -0.23193266	     -7.32690326	     -1.05785998	      3.87592262	     34.84303770	      0.60812573	     -7.19788215	     -6.03044185	     -7.48030725	     29.19670923	      2.78418141	     -3.43123628	     18.48351783	      0.32259824	     -0.88578247	     -1.22373032	     -7.48030725	      8.50335848	     -1.24675950	      6.92851145	      1.43594131	    -14.28018177	      5.40982322	     34.33903299	     82.01519938	    -15.54535183	     -9.25747144	    -10.50307060	     12.25533457	     81.75144430
      0.70000000	     -7.12578663	      2.66558529	     -6.93480877	      0.78706203	      0.91009274	     -0.23206704	     -5.78731183	     -1.32729863	      3.39278507	     38.56855439	      0.67314826	     -9.58624233	     -6.49357236	     -7.48145482	     28.15717860	      3.25863818	     -3.10991732	     18.78379619	      0.32783909	     -0.22380949	     -1.27344424	     -7.48145482	      8.34379093	     -1.53548698	      6.54121252	      0.54847854	    -13.93967745	      5.36407488	     33.56974433	     81.84497028	    -14.84504023	     -9.64878018	    -10.22305747	     13.11177444	     81.60588930
      0.71000000	     -7.02028183	      2.70818118	     -6.66751368	      0.80133993	      0.91380208	     -0.23214442	     -4.09421369	     -1.46215017	      3.08194111	     42.15080938	      0.73567041	    -11.80710028	     -6.90830043	     -7.48268192	     27.14510845	      3.58612034	     -2.81732569	     19.02123280	      0.33198314	      0.58920689	     -1.29193409	     -7.48268192	      8.33400235	     -1.64626320	      6.20048972	     -0.15982015	    -13.54343598	      5.22392881	     32.08083622	     82.01590286	    -13.93590469	     -9.98772684	     -9.68181002	     13.56621838	     81.85982290
      0.72000000	     -6.83810588	      2.75357070	     -6.40116369	      0.81509014	      0.91723050	     -0.23216506	     -2.45129521	     -1.60795161	      2.76914109	     45.49028133	      0.79395519	    -13.56507736	     -7.31281075	     -7.48374667	     25.93483699	      3.91466368	     -2.53687185	     19.01012410	      0.33178926	      1.26368303	     -1.30755201	     -7.48374667	      8.13418160	     -1.80122506	      5.76301794	     -0.97856581	    -13.24030081	      5.18356724	     31.17171661	     81.90257141	    -13.14831774	    -10.35896804	     -9.37764408	     14.45128821	     81.77236813
      0.73000000	     -6.75857188	      2.70751695	     -6.15478651	      0.82817215	      0.92006736	     -0.23213312	     -0.69149302	     -1.64189463	      2.49773472	     48.52573434	      0.84693384	    -14.83848654	     -7.50147731	     -7.48482022	     24.81606775	      4.11615407	     -2.22727583	     18.96436948	      0.33099069	      2.08357953	     -1.23379265	     -7.48482022	      8.17402177	     -1.80268562	      5.33285914	     -1.66249503	    -12.87279976	      5.05410540	     29.72457279	     82.16928600	    -12.25272642	    -10.70990225	     -8.78985131	     15.02322073	     82.13330337
      0.74000000	     -6.60003403	      2.61073712	     -5.85705773	      0.84064107	      0.92265052	     -0.23208561	      0.92963238	     -1.60655916	      2.19879302	     51.12875372	      0.89236509	    -15.56130982	     -7.74166965	     -7.48525405	     23.48963219	      4.28088341	     -1.89779937	     18.62955479	      0.32514707	      2.75113709	     -1.22124004	     -7.48525405	      7.91991869	     -1.81702170	      4.66657674	     -2.60367037	    -12.70979773	      5.07529358	     29.34360276	     82.01348465	    -11.46038692	    -11.02148167	     -8.70095952	     15.87358706	     81.97898174
      0.75000000	     -6.52654451	      2.39037276	     -5.67011976	      0.85237868	      0.92500892	     -0.23179972	      2.65869523	     -1.36036561	      2.09771852	     53.36541743	      0.93140224	    -16.00598876	     -8.26544539	     -7.48600849	     22.26145739	      4.23789870	     -1.65012478	     18.27578378	      0.31897260	      3.36043864	     -1.09291047	     -7.48600849	      7.89674144	     -1.60712586	      4.29200207	     -3.27081707	    -12.45051839	      4.92058277	     27.82639252	     82.07104135	    -10.49927823	    -11.33815610	     -8.25315250	     16.56683360	     82.14354570
      0.76000000	     -6.48379359	      2.07672409	     -5.42226954	      0.86360189	      0.92743760	     -0.23149128	      4.37770788	     -1.00650715	      1.88871963	     55.16161836	      0.96275186	    -16.00387472	     -8.76673339	     -7.48660600	     21.01474093	      4.08947243	     -1.39240459	     17.74981722	      0.30979275	      3.88864554	     -0.96790454	     -7.48660600	      7.74027218	     -1.32664760	      3.76446671	     -4.02230316	    -12.29334441	      4.82316686	     26.82062390	     82.03439803	     -9.60872765	    -11.60048461	     -7.92127021	     17.28292246	     82.18045338
      0.77000000	     -6.47427494	      1.68140077	     -5.12481750	      0.87454820	      0.93016171	     -0.23116518	      6.10416468	     -0.53999931	      1.63274774	     56.53586907	      0.98673706	    -15.62718565	     -9.25897632	     -7.48709577	     19.79569895	      3.84976557	     -1.07908618	     17.15601482	      0.29942895	      4.37588810	     -0.78270192	     -7.48709577	      7.62919037	     -0.93847670	      3.15126713	     -4.79334554	    -12.18818664	      4.72312859	     26.00645745	     81.94681581	     -8.78511360	    -11.83234196	     -7.62666184	     17.97149284	     82.16802883
      0.78000000	     -6.48433705	      1.20359790	     -4.84082440	      0.88529913	      0.93340034	     -0.23086525	      7.83225298	      0.03710009	      1.39516499	     57.47066168	      1.00305227	    -14.97652089	     -9.75729587	     -7.48724520	     18.57426958	      3.49990660	     -0.77854862	     16.43919468	      0.28691807	      4.67843880	     -0.61890770	     -7.48724520	      7.42097733	     -0.38842428	      2.37151991	     -5.56173189	    -12.21501172	      4.70890093	     25.66723105	     81.86077274	     -7.97711650	    -11.94924803	     -7.55681289	     18.50942880	     82.10191696
      0.79000000	     -6.65588176	      0.66365412	     -4.45163106	      0.89616227	      0.93686184	     -0.23061265	      9.68954066	      0.70111770	      1.03859100	     57.96729353	      1.01172013	    -14.19448622	    -10.42388190	     -7.48770056	     17.55071348	      3.05275860	     -0.55347795	     15.72074313	      0.27437873	      5.00863530	     -0.23714919	     -7.48770056	      7.50156163	      0.15105421	      1.86389676	     -6.24784290	    -12.11346141	      4.43234813	     24.32721509	     81.78584986	     -7.16883411	    -12.15845360	     -6.96468669	     19.21887857	     82.22929076
      0.80000000	     -6.73460237	      0.11081357	     -4.05872334	      0.90717183	      0.94061337	     -0.23046519	     11.42047731	      1.35612009	      0.67209067	     58.06343486	      1.01339811	    -13.29364870	    -11.06507586	     -7.48781043	     16.40302102	      2.59743698	     -0.26567672	     14.89013995	      0.25988197	      5.06665424	      0.04588048	     -7.48781043	      7.37821296	      0.73446844	      1.09994258	     -7.02141826	    -12.16354995	      4.39654251	     23.90889738	     81.74217873	     -6.41231994	    -12.25970136	     -6.85382635	     19.64323133	     82.21665472
      0.81000000	     -6.87343878	     -0.43301673	     -3.63718108	      0.91839640	      0.94417322	     -0.23042465	     13.16647694	      1.98151930	      0.28235275	     57.74825785	      1.00789724	    -12.40437808	    -11.71677123	     -7.48787433	     15.31942233	      2.13738622	      0.01217269	     14.00323119	      0.24440249	      5.07167224	      0.38241470	     -7.48787433	      7.32065825	      1.31575779	      0.36911044	     -7.78107962	    -12.19738043	      4.35948560	     23.43327896	     81.71671932	     -5.63095015	    -12.34825267	     -6.74857719	     20.05663070	     82.22578812
